<?xml version="1.0" encoding="UTF-8" standalone="no"?>
<svg
   xmlns:dc="http://purl.org/dc/elements/1.1/"
   xmlns:cc="http://creativecommons.org/ns#"
   xmlns:rdf="http://www.w3.org/1999/02/22-rdf-syntax-ns#"
   xmlns:svg="http://www.w3.org/2000/svg"
   xmlns="http://www.w3.org/2000/svg"
   xmlns:sodipodi="http://sodipodi.sourceforge.net/DTD/sodipodi-0.dtd"
   xmlns:inkscape="http://www.inkscape.org/namespaces/inkscape"
   width="202.96332mm"
   height="242.27301mm"
   viewBox="0 0 202.96332 242.27301"
   version="1.1"
   id="svg2611"
   inkscape:version="1.0.2 (e86c870879, 2021-01-15)">
  <defs
     id="defs2605" />
  <sodipodi:namedview
     id="base"
     pagecolor="#000000"
     bordercolor="#666666"
     borderopacity="1.0"
     inkscape:pageopacity="0"
     inkscape:pageshadow="2"
     inkscape:zoom="0.49497475"
     inkscape:cx="510.79838"
     inkscape:cy="729.56682"
     inkscape:document-units="mm"
     inkscape:current-layer="layer1"
     inkscape:document-rotation="0"
     showgrid="false"
     fit-margin-top="0"
     fit-margin-left="0"
     fit-margin-right="0"
     fit-margin-bottom="0"
     inkscape:window-width="1514"
     inkscape:window-height="968"
     inkscape:window-x="249"
     inkscape:window-y="75"
     inkscape:window-maximized="0" />
  <metadata
     id="metadata2608">
    <rdf:RDF>
      <cc:Work
         rdf:about="">
        <dc:format>image/svg+xml</dc:format>
        <dc:type
           rdf:resource="http://purl.org/dc/dcmitype/StillImage" />
        <dc:title></dc:title>
      </cc:Work>
    </rdf:RDF>
  </metadata>
  <g
     inkscape:label="Layer 1"
     inkscape:groupmode="layer"
     id="layer1"
     transform="translate(68.975704,53.100791)">
    <path
       d="m -13.605907,84.48255 0.398816,1.29893 1.298787,0.39863 -1.298787,0.39864 -0.398816,1.29893 -0.398638,-1.29893 -1.29854,-0.39864 1.29854,-0.39863 0.398638,-1.29893"
       style="fill:#e8e8e7;fill-opacity:1;fill-rule:evenodd;stroke:none;stroke-width:0.0352778"
       id="path1929" />
    <path
       d="m 29.483378,95.82183 0.39882,1.29893 1.29878,0.39863 -1.29878,0.39864 -0.39882,1.29893 -0.39864,-1.29893 -1.29854,-0.39864 1.29854,-0.39863 0.39864,-1.29893"
       style="fill:#e8e8e7;fill-opacity:1;fill-rule:evenodd;stroke:none;stroke-width:0.0352778"
       id="path1929-9" />
    <path
       d="m 83.911948,-6.987693 0.39882,1.298928 1.29879,0.398639 -1.29879,0.398639 -0.39882,1.298928 -0.39864,-1.298928 -1.29854,-0.398639 1.29854,-0.398639 0.39864,-1.298928"
       style="fill:#e8e8e7;fill-opacity:1;fill-rule:evenodd;stroke:none;stroke-width:0.0352778"
       id="path1929-1" />
    <path
       d="m -16.629717,-36.098519 0.398816,-1.298928 1.298787,-0.398639 -1.298787,-0.398639 -0.398816,-1.298928 -0.398638,1.298928 -1.29854,0.398639 1.29854,0.398639 0.398638,1.298928"
       style="fill:#e8e8e7;fill-opacity:1;fill-rule:evenodd;stroke:none;stroke-width:0.0352778"
       id="path1929-2" />
    <path
       d="m 108.10292,147.60371 0.3103,1.01035 1.00958,0.31009 -1.00958,0.30974 -0.3103,1.01071 -0.31048,-1.01071 -1.00997,-0.30974 1.00997,-0.31009 0.31048,-1.01035"
       style="fill:#e8e8e7;fill-opacity:1;fill-rule:evenodd;stroke:none;stroke-width:0.0352778"
       id="path1917" />
    <path
       d="m 22.679838,5.483305 0.13335,0.432858 0.43251,0.132997 -0.43251,0.132645 -0.13335,0.433211 -0.13264,-0.433211 -0.43286,-0.132645 0.43286,-0.132997 0.13264,-0.432858"
       style="fill:#e8e8e7;fill-opacity:1;fill-rule:evenodd;stroke:none;stroke-width:0.0352778"
       id="path1931" />
    <path
       d="m -55.939202,164.2333 0.13335,0.43286 0.432505,0.133 -0.432505,0.13264 -0.13335,0.43322 -0.132645,-0.43322 -0.432858,-0.13264 0.432858,-0.133 0.132645,-0.43286"
       style="fill:#e8e8e7;fill-opacity:1;fill-rule:evenodd;stroke:none;stroke-width:0.0352778"
       id="path1931-7" />
    <path
       d="m -51.403492,42.52496 0.13335,0.43286 0.432505,0.133 -0.432505,0.13264 -0.13335,0.43322 -0.132645,-0.43322 -0.432858,-0.13264 0.432858,-0.133 0.132645,-0.43286"
       style="fill:#e8e8e7;fill-opacity:1;fill-rule:evenodd;stroke:none;stroke-width:0.0352778"
       id="path1931-0" />
    <path
       d="m 53.673888,41.01306 0.13335,0.43286 0.43251,0.133 -0.43251,0.13264 -0.13335,0.43322 -0.13264,-0.43322 -0.43286,-0.13264 0.43286,-0.133 0.13264,-0.43286"
       style="fill:#e8e8e7;fill-opacity:1;fill-rule:evenodd;stroke:none;stroke-width:0.0352778"
       id="path1931-9" />
    <path
       d="m 74.841088,182.75943 0.75354,2.45286 2.45251,0.75354 -2.45251,0.75353 -0.75354,2.45286 -0.75424,-2.45286 -2.45251,-0.75353 2.45251,-0.75354 0.75424,-2.45286"
       style="fill:#e8e8e7;fill-opacity:1;fill-rule:evenodd;stroke:none;stroke-width:0.0352778"
       id="path1903-73" />
    <path
       d="m 130.78156,165.37252 0.75354,2.45286 2.45251,0.75354 -2.45251,0.75353 -0.75354,2.45286 -0.75424,-2.45286 -2.45251,-0.75353 2.45251,-0.75354 0.75424,-2.45286"
       style="fill:#e8e8e7;fill-opacity:1;fill-rule:evenodd;stroke:none;stroke-width:0.0352778"
       id="path1903-61" />
    <path
       d="m -67.278526,-53.100791 0.398816,1.298928 1.298787,0.398639 -1.298787,0.398639 -0.398816,1.298928 -0.398638,-1.298928 -1.29854,-0.398639 1.29854,-0.398639 0.398638,-1.298928"
       style="fill:#e8e8e7;fill-opacity:1;fill-rule:evenodd;stroke:none;stroke-width:0.0352778"
       id="path1929-2-2" />
    <path
       d="m -15.873765,183.51231 0.398816,1.29892 1.298787,0.39864 -1.298787,0.39864 -0.398816,1.29893 -0.398638,-1.29893 -1.29854,-0.39864 1.29854,-0.39864 0.398638,-1.29892"
       style="fill:#e8e8e7;fill-opacity:1;fill-rule:evenodd;stroke:none;stroke-width:0.0352778"
       id="path1929-2-9" />
  </g>
</svg>
