<?xml version="1.0" encoding="UTF-8" standalone="no"?>
<svg
   xmlns:dc="http://purl.org/dc/elements/1.1/"
   xmlns:cc="http://creativecommons.org/ns#"
   xmlns:rdf="http://www.w3.org/1999/02/22-rdf-syntax-ns#"
   xmlns:svg="http://www.w3.org/2000/svg"
   xmlns="http://www.w3.org/2000/svg"
   xmlns:sodipodi="http://sodipodi.sourceforge.net/DTD/sodipodi-0.dtd"
   xmlns:inkscape="http://www.inkscape.org/namespaces/inkscape"
   width="232.54613mm"
   height="248.19379mm"
   viewBox="0 0 232.54613 248.19379"
   version="1.1"
   id="svg10542"
   inkscape:version="1.0.2 (e86c870879, 2021-01-15)"
   sodipodi:docname="nasaTest.svg">
  <defs
     id="defs10536" />
  <sodipodi:namedview
     id="base"
     pagecolor="#2e2e32"
     bordercolor="#666666"
     borderopacity="1.0"
     inkscape:pageopacity="0"
     inkscape:pageshadow="2"
     inkscape:zoom="0.7"
     inkscape:cx="625.13957"
     inkscape:cy="471.02721"
     inkscape:document-units="mm"
     inkscape:current-layer="layer1"
     inkscape:document-rotation="0"
     showgrid="false"
     inkscape:window-width="1514"
     inkscape:window-height="993"
     inkscape:window-x="219"
     inkscape:window-y="27"
     inkscape:window-maximized="0" />
  <metadata
     id="metadata10539">
    <rdf:RDF>
      <cc:Work
         rdf:about="">
        <dc:format>image/svg+xml</dc:format>
        <dc:type
           rdf:resource="http://purl.org/dc/dcmitype/StillImage" />
        <dc:title />
      </cc:Work>
    </rdf:RDF>
  </metadata>
  <g
     inkscape:label="Layer 1"
     inkscape:groupmode="layer"
     id="layer1"
     style="display:inline">
    <path
       d="m 43.089286,51.779185 1.333147,4.340226 4.340225,1.333147 -4.340225,1.333147 -1.333147,4.339873 -1.3335,-4.339873 -4.339873,-1.333147 4.339873,-1.333147 1.3335,-4.340226"
       style="fill:#e8e8e7;fill-opacity:1;fill-rule:evenodd;stroke:none;stroke-width:0.0352778"
       id="path6837" />
    <path
       d="m 197.30357,106.20776 1.33315,4.34022 4.34023,1.33315 -4.34023,1.33315 -1.33315,4.33987 -1.3335,-4.33987 -4.33987,-1.33315 4.33987,-1.33315 1.3335,-4.34022"
       style="fill:#e8e8e7;fill-opacity:1;fill-rule:evenodd;stroke:none;stroke-width:0.0352778"
       id="path6837-6" />
    <path
       d="m 29.482317,172.80044 1.671814,5.44371 5.444067,1.67217 -5.444067,1.67252 -1.671814,5.44406 -1.672167,-5.44406 -5.444067,-1.67252 5.444067,-1.67217 1.672167,-5.44371"
       style="fill:#e8e8e7;fill-opacity:1;fill-rule:evenodd;stroke:none;stroke-width:0.0352778"
       id="path6817" />
    <text
       xml:space="preserve"
       style="font-size:25.4px;line-height:1.25;font-family:sans-serif;letter-spacing:0px;stroke-width:0.264583"
       x="36.125317"
       y="137.55106"
       id="text2017"><tspan
         sodipodi:role="line"
         id="tspan2015"
         x="36.125317"
         y="137.55106"
         style="font-style:normal;font-variant:normal;font-weight:normal;font-stretch:normal;font-size:25.4px;font-family:Nasalization;-inkscape-font-specification:Nasalization;fill:#ffffff;stroke-width:0.264583">Rocket<tspan
   style="fill:#ffd300;fill-opacity:1;font-weight:normal"
   id="tspan2019">pool</tspan></tspan></text>
    <text
       xml:space="preserve"
       style="font-size:10.5833px;line-height:1.25;font-family:sans-serif;letter-spacing:0px;stroke-width:0.264583"
       x="121.70321"
       y="171.22037"
       id="text2041"><tspan
         sodipodi:role="line"
         id="tspan2039"
         x="121.70321"
         y="171.22037"
         style="stroke-width:0.264583"></tspan></text>
  </g>
  <g
     inkscape:groupmode="layer"
     id="layer2"
     inkscape:label="Layer 2"
     style="display:inline">
    <path
       d="m 130.02416,39.882889 0.75354,2.452864 2.45251,0.753533 -2.45251,0.753534 -0.75354,2.452864 -0.75424,-2.452864 -2.45251,-0.753534 2.45251,-0.753533 0.75424,-2.452864"
       style="fill:#e8e8e7;fill-opacity:1;fill-rule:evenodd;stroke:none;stroke-width:0.0352778"
       id="path1903" />
    <path
       d="m 80.887253,95.067409 0.753533,2.452864 2.452512,0.753533 -2.452512,0.753534 -0.753533,2.45286 -0.754239,-2.45286 -2.452511,-0.753534 2.452511,-0.753533 0.754239,-2.452864"
       style="fill:#e8e8e7;fill-opacity:1;fill-rule:evenodd;stroke:none;stroke-width:0.0352778"
       id="path1903-3" />
    <path
       d="m 102.80988,202.41265 0.75353,2.45286 2.45251,0.75354 -2.45251,0.75353 -0.75353,2.45286 -0.75424,-2.45286 -2.452513,-0.75353 2.452513,-0.75354 0.75424,-2.45286"
       style="fill:#e8e8e7;fill-opacity:1;fill-rule:evenodd;stroke:none;stroke-width:0.0352778"
       id="path1903-6" />
    <path
       d="m 159.5063,148.74003 0.75354,2.45286 2.45251,0.75354 -2.45251,0.75353 -0.75354,2.45286 -0.75423,-2.45286 -2.45252,-0.75353 2.45252,-0.75354 0.75423,-2.45286"
       style="fill:#e8e8e7;fill-opacity:1;fill-rule:evenodd;stroke:none;stroke-width:0.0352778"
       id="path1903-7" />
    <path
       d="m 212.42297,32.323369 0.75354,2.452864 2.45251,0.753533 -2.45251,0.753534 -0.75354,2.452864 -0.75424,-2.452864 -2.45251,-0.753534 2.45251,-0.753533 0.75424,-2.452864"
       style="fill:#e8e8e7;fill-opacity:1;fill-rule:evenodd;stroke:none;stroke-width:0.0352778"
       id="path1903-5" />
  </g>
  <g
     inkscape:groupmode="layer"
     id="layer3"
     inkscape:label="Layer 3"
     style="display:inline">
    <path
       d="m 65.767645,144.20125 0.398816,1.29893 1.298787,0.39863 -1.298787,0.39864 -0.398816,1.29893 -0.398638,-1.29893 -1.29854,-0.39864 1.29854,-0.39863 0.398638,-1.29893"
       style="fill:#e8e8e7;fill-opacity:1;fill-rule:evenodd;stroke:none;stroke-width:0.0352778"
       id="path1929" />
    <path
       d="m 108.85693,155.54053 0.39882,1.29893 1.29878,0.39863 -1.29878,0.39864 -0.39882,1.29893 -0.39864,-1.29893 -1.29854,-0.39864 1.29854,-0.39863 0.39864,-1.29893"
       style="fill:#e8e8e7;fill-opacity:1;fill-rule:evenodd;stroke:none;stroke-width:0.0352778"
       id="path1929-9" />
    <path
       d="m 163.2855,52.731007 0.39882,1.298928 1.29879,0.398639 -1.29879,0.398639 -0.39882,1.298928 -0.39864,-1.298928 -1.29854,-0.398639 1.29854,-0.398639 0.39864,-1.298928"
       style="fill:#e8e8e7;fill-opacity:1;fill-rule:evenodd;stroke:none;stroke-width:0.0352778"
       id="path1929-1" />
    <path
       d="m 62.743835,23.620181 0.398816,-1.298928 1.298787,-0.398639 -1.298787,-0.398639 -0.398816,-1.298928 -0.398638,1.298928 -1.29854,0.398639 1.29854,0.398639 0.398638,1.298928"
       style="fill:#e8e8e7;fill-opacity:1;fill-rule:evenodd;stroke:none;stroke-width:0.0352778"
       id="path1929-2" />
    <path
       d="m 187.47647,207.32241 0.3103,1.01035 1.00958,0.31009 -1.00958,0.30974 -0.3103,1.01071 -0.31048,-1.01071 -1.00997,-0.30974 1.00997,-0.31009 0.31048,-1.01035"
       style="fill:#e8e8e7;fill-opacity:1;fill-rule:evenodd;stroke:none;stroke-width:0.0352778"
       id="path1917" />
    <path
       d="m 102.05339,65.202005 0.13335,0.432858 0.43251,0.132997 -0.43251,0.132645 -0.13335,0.433211 -0.13264,-0.433211 -0.43286,-0.132645 0.43286,-0.132997 0.13264,-0.432858"
       style="fill:#e8e8e7;fill-opacity:1;fill-rule:evenodd;stroke:none;stroke-width:0.0352778"
       id="path1931" />
    <path
       d="m 23.43435,223.952 0.13335,0.43286 0.432505,0.133 -0.432505,0.13264 -0.13335,0.43322 -0.132645,-0.43322 -0.432858,-0.13264 0.432858,-0.133 0.132645,-0.43286"
       style="fill:#e8e8e7;fill-opacity:1;fill-rule:evenodd;stroke:none;stroke-width:0.0352778"
       id="path1931-7" />
    <path
       d="m 27.97006,102.24366 0.13335,0.43286 0.432505,0.133 -0.432505,0.13264 -0.13335,0.43322 -0.132645,-0.43322 -0.432858,-0.13264 0.432858,-0.133 0.132645,-0.43286"
       style="fill:#e8e8e7;fill-opacity:1;fill-rule:evenodd;stroke:none;stroke-width:0.0352778"
       id="path1931-0" />
    <path
       d="m 133.04744,100.73176 0.13335,0.43286 0.43251,0.133 -0.43251,0.13264 -0.13335,0.43322 -0.13264,-0.43322 -0.43286,-0.13264 0.43286,-0.133 0.13264,-0.43286"
       style="fill:#e8e8e7;fill-opacity:1;fill-rule:evenodd;stroke:none;stroke-width:0.0352778"
       id="path1931-9" />
    <path
       d="m 154.21464,242.47813 0.75354,2.45286 2.45251,0.75354 -2.45251,0.75353 -0.75354,2.45286 -0.75424,-2.45286 -2.45251,-0.75353 2.45251,-0.75354 0.75424,-2.45286"
       style="fill:#e8e8e7;fill-opacity:1;fill-rule:evenodd;stroke:none;stroke-width:0.0352778"
       id="path1903-73" />
    <path
       d="m 210.15511,225.09122 0.75354,2.45286 2.45251,0.75354 -2.45251,0.75353 -0.75354,2.45286 -0.75424,-2.45286 -2.45251,-0.75353 2.45251,-0.75354 0.75424,-2.45286"
       style="fill:#e8e8e7;fill-opacity:1;fill-rule:evenodd;stroke:none;stroke-width:0.0352778"
       id="path1903-61" />
    <path
       d="m 12.095026,6.617909 0.398816,1.298928 1.298787,0.398639 -1.298787,0.398639 -0.398816,1.298928 -0.398638,-1.298928 -1.29854,-0.398639 1.29854,-0.398639 0.398638,-1.298928"
       style="fill:#e8e8e7;fill-opacity:1;fill-rule:evenodd;stroke:none;stroke-width:0.0352778"
       id="path1929-2-2" />
    <path
       d="m 63.499787,243.23101 0.398816,1.29892 1.298787,0.39864 -1.298787,0.39864 -0.398816,1.29893 -0.398638,-1.29893 -1.29854,-0.39864 1.29854,-0.39864 0.398638,-1.29892"
       style="fill:#e8e8e7;fill-opacity:1;fill-rule:evenodd;stroke:none;stroke-width:0.0352778"
       id="path1929-2-9" />
  </g>
</svg>
