<?xml version="1.0" encoding="UTF-8" standalone="no"?>
<svg
   xmlns:dc="http://purl.org/dc/elements/1.1/"
   xmlns:cc="http://creativecommons.org/ns#"
   xmlns:rdf="http://www.w3.org/1999/02/22-rdf-syntax-ns#"
   xmlns:svg="http://www.w3.org/2000/svg"
   xmlns="http://www.w3.org/2000/svg"
   xmlns:sodipodi="http://sodipodi.sourceforge.net/DTD/sodipodi-0.dtd"
   xmlns:inkscape="http://www.inkscape.org/namespaces/inkscape"
   width="142.33186mm"
   height="77.967323mm"
   viewBox="0 0 142.33186 77.967323"
   version="1.1"
   id="svg12510"
   inkscape:version="1.0.2 (e86c870879, 2021-01-15)"
   sodipodi:docname="rocketpooliconwithtexture.svg">
  <defs
     id="defs12504" />
  <sodipodi:namedview
     id="base"
     pagecolor="#000000"
     bordercolor="#666666"
     borderopacity="1.0"
     inkscape:pageopacity="0"
     inkscape:pageshadow="2"
     inkscape:zoom="0.5"
     inkscape:cx="-522.34219"
     inkscape:cy="324.32335"
     inkscape:document-units="mm"
     inkscape:current-layer="layer1"
     inkscape:document-rotation="0"
     showgrid="false"
     fit-margin-top="0"
     fit-margin-left="0"
     fit-margin-right="0"
     fit-margin-bottom="0"
     inkscape:window-width="1530"
     inkscape:window-height="968"
     inkscape:window-x="1242"
     inkscape:window-y="539"
     inkscape:window-maximized="0" />
  <metadata
     id="metadata12507">
    <rdf:RDF>
      <cc:Work
         rdf:about="">
        <dc:format>image/svg+xml</dc:format>
        <dc:type
           rdf:resource="http://purl.org/dc/dcmitype/StillImage" />
        <dc:title></dc:title>
      </cc:Work>
    </rdf:RDF>
  </metadata>
  <g
     inkscape:label="Layer 1"
     inkscape:groupmode="layer"
     id="layer1"
     transform="translate(-62.234551,-82.373056)">
    <path
       id="path10498-1"
       style="fill:#fd6961;fill-opacity:1;stroke:none;stroke-width:0.637596;stroke-miterlimit:4;stroke-dasharray:none;stroke-opacity:1"
       d="m 94.195634,160.11541 c -0.40246,-0.0388 -0.80646,-0.0582 -1.21011,-0.0803 -1.22027,-0.0633 -2.4414,-0.1077 -3.66248,-0.15149 -1.92748,-0.0669 -3.85542,-0.11978 -5.78346,-0.16713 -1.72432,-0.043 -3.44856,-0.0869 -5.17367,-0.13868 -0.10077,-0.003 -0.20898,-0.006 -0.31267,-0.0101 -0.46799,-0.0145 -0.93597,-0.03 -1.40389,-0.0468 -0.0236,-10e-4 -0.0589,-0.002 -0.0867,-0.003 -0.29886,-0.0111 -0.59768,-0.0227 -0.89646,-0.0355 -0.0363,-0.002 -0.0822,-0.004 -0.12225,-0.005 -0.17671,-0.007 -0.35336,-0.0159 -0.53003,-0.0242 -0.0124,-7e-4 -0.0423,-0.002 -0.0614,-0.003 -0.30439,-0.0149 -0.60867,-0.0321 -0.91282,-0.0513 -0.0101,-7.1e-4 -0.0423,-0.003 -0.0608,-0.004 -0.0334,-0.002 -0.0668,-0.004 -0.1002,-0.007 -0.0124,-0.001 -0.0422,-0.003 -0.0614,-0.004 -0.0334,-0.002 -0.0668,-0.005 -0.10015,-0.007 -0.0124,-7.1e-4 -0.0422,-0.003 -0.0613,-0.004 -0.43676,-0.033 -0.87379,-0.0694 -1.30717,-0.13458 -0.0967,-0.0153 -0.19353,-0.0307 -0.28944,-0.0507 0.18938,-0.4929 0.39516,-0.97918 0.60259,-1.46454 0.006,-0.0132 0.0169,-0.0392 0.0246,-0.0573 0.0297,-0.0689 0.0613,-0.14259 0.0895,-0.2075 0.1405,-0.32506 0.28213,-0.64962 0.42463,-0.97378 0.007,-0.0146 0.0182,-0.0412 0.0267,-0.0604 0.0644,-0.14589 0.1289,-0.29176 0.19335,-0.43766 0.0112,-0.0254 0.0269,-0.0606 0.0398,-0.0897 0.13392,-0.30205 0.26872,-0.60373 0.40367,-0.90531 0.0212,-0.0469 0.0456,-0.10151 0.0681,-0.15138 0.87354,-1.94506 1.76386,-3.88247 2.66386,-5.81523 0.64293,-1.37932 1.29164,-2.75594 1.94868,-4.12847 0.0261,-0.054 0.0553,-0.11524 0.0827,-0.17203 0.51537,-1.07394 1.03565,-2.1456 1.57288,-3.20862 0.21999,-0.43584 0.44617,-0.86853 0.68049,-1.29676 0.17263,-0.32407 0.31027,-0.67491 0.34158,-1.04428 0.0369,-0.39555 -0.0536,-0.79693 -0.23107,-1.14977 -0.19667,-0.39693 -0.4803,-0.74126 -0.77586,-1.06675 -0.39244,-0.42951 -0.81577,-0.82868 -1.23938,-1.22645 -0.43226,-0.40415 -0.87209,-0.79998 -1.30795,-1.20016 -0.77545,-0.71836 -1.51585,-1.47464 -2.22907,-2.25564 -0.59603,-0.65512 -1.17499,-1.3271 -1.71084,-2.03348 -0.21234,-0.28156 -0.41622,-0.57008 -0.59716,-0.87333 -0.56839,-0.93505 -1.13762,-1.86956 -1.70632,-2.80438 -3.90975,0.16524 3.90975,-0.16525 0,0 9.9e-4,-1.57458 -0.43451,-2.30287 -0.43451,-3.87744 -0.16082,-1.61897 -0.0751,-1.4198 -0.17465,-2.52682 0.006,-0.37641 -0.0909,0.42559 -0.0349,0.0528 0.40653,-4.63611 1.2708,-6.48852 1.6973,-7.32172 0.002,-0.003 0.0188,-0.0362 0.026,-0.0504 0.33192,-0.64363 0.68485,-1.27607 1.04859,-1.90188 0.007,-0.0118 0.0215,-0.0368 0.0314,-0.0536 0.0219,-0.0376 0.0438,-0.0751 0.0658,-0.11268 0.006,-0.0101 0.0216,-0.0367 0.0313,-0.0531 0.47218,-0.80281 0.96578,-1.59287 1.48638,-2.36469 0.81959,-1.22276 1.63889,-2.44572 2.45837,-3.66858 -1.67487,-3.12791 -3.3483,-6.256601 -5.0242,-9.383951 -1.34988,-2.51379 -2.70439,-5.02513 -4.07415,-7.528 -0.27863,-0.50834 -0.55965,-1.01532 -0.84199,-1.52156 -0.0557,-0.10272 -0.10989,-0.20633 -0.16288,-0.31054 0,0 -0.0181,-0.0362 -0.025,-0.0499 -0.16635,-0.33277 -0.31693,-0.67408 -0.43976,-1.02571 0.20495,-0.033 0.42668,-0.0641 0.62201,-0.0921 0.26831,-0.0375 0.53691,-0.0727 0.80567,-0.10663 0.0223,-0.002 0.056,-0.007 0.0827,-0.0103 0.061,-0.008 0.1304,-0.0162 0.18608,-0.0233 0.27259,-0.0334 0.55011,-0.0659 0.82493,-0.0977 0.0171,-0.002 0.0468,-0.005 0.0687,-0.008 0.62337,-0.0715 1.24725,-0.13839 1.87136,-0.20305 0.0581,-0.006 0.124,-0.0127 0.18511,-0.0189 0.19741,-0.0204 0.3949,-0.0401 0.59235,-0.06 0.0358,-0.004 0.0812,-0.008 0.12072,-0.0119 1.7916,-0.17724 3.58927,-0.33736 5.38082,-0.48412 1.66075,-0.13427 3.32182,-0.26459 4.98271,-0.39708 2.57244,-0.20441 5.14486,-0.40881 7.7173,-0.61322 3.30706,1.9128 6.61437,3.82518 9.920906,5.73887 1.11674,0.64666 2.2348,1.29431 3.35206,1.94136 1.23461,0.71634 2.47234,1.4336 3.70697,2.15235 0.57796,0.34473 1.21378,0.58645 1.86908,0.73128 0.79203,0.1767 1.60533,0.23044 2.4147,0.2404 0.99478,0.0106 1.98878,-0.0464 2.98045,-0.11997 0.92414,-0.0694 1.84648,-0.16087 2.76859,-0.2531 0.51436,-0.0502 1.02926,-0.0944 1.54447,-0.13462 0.0114,-7.2e-4 0.0422,-0.003 0.0611,-0.005 0.30863,-0.0237 0.61739,-0.0456 0.92622,-0.0662 0.013,-0.001 0.0422,-0.003 0.0615,-0.004 0.74848,-0.049 1.49755,-0.0887 2.24692,-0.12118 0.0147,-3.6e-4 0.0422,-0.002 0.062,-0.002 0.21097,-0.009 0.42199,-0.0169 0.63299,-0.0249 0.0365,-0.001 0.0828,-0.003 0.12311,-0.004 0.10142,-0.004 0.2028,-0.007 0.30419,-0.0104 0.0147,-7.2e-4 0.0422,-0.001 0.0618,-0.002 0.83362,-0.0266 1.66751,-0.0442 2.50149,-0.0543 0.0147,0 0.0422,-3.6e-4 0.0618,-7.2e-4 1.01316,-0.0113 2.02644,-0.0107 3.03961,0 0.0179,0 0.0484,7.2e-4 0.0713,7.2e-4 0.4889,0.006 0.97779,0.0136 1.46659,0.0236 0.0315,7.1e-4 0.0729,0.002 0.1081,0.002 0.49806,0.0111 0.99608,0.0237 1.49399,0.0394 0.0584,0.002 0.12458,0.004 0.18597,0.006 0.0461,0.001 0.0902,0.003 0.13355,0.004 0.1791,0.006 0.35819,0.0123 0.5373,0.0185 0.0114,3.5e-4 0.0422,0.002 0.0613,0.002 2.68813,0.0991 5.37396,0.26259 8.05486,0.48496 0.0351,0.003 0.0797,0.007 0.11838,0.01 0.42716,0.0357 0.85417,0.0731 1.28108,0.11172 0.0413,0.004 0.0913,0.008 0.13599,0.0124 0.0713,0.007 0.14252,0.0131 0.21376,0.0196 0.0236,0.002 0.0585,0.005 0.0864,0.008 0.12327,0.0116 0.25149,0.0238 0.37183,0.0351 0.91913,0.0877 1.83762,0.18247 2.75531,0.2844 0.0569,0.006 0.12164,0.0136 0.18142,0.0202 0.48222,0.054 0.96417,0.1103 1.44593,0.16824 0.0496,0.006 0.10746,0.0131 0.16013,0.0195 0.38027,0.0462 0.76038,0.0937 1.14035,0.14238 0.0587,0.008 0.12523,0.0162 0.18684,0.0243 0.55517,0.0717 1.10992,0.14675 1.66436,0.22407 0.0197,0.003 0.0514,0.007 0.0755,0.0107 0.68825,0.0966 1.37588,0.19773 2.06284,0.30329 0.0391,0.006 0.0874,0.0135 0.12996,0.0201 0.0869,0.0135 0.17374,0.027 0.26059,0.0405 0.0298,0.005 0.0698,0.011 0.10338,0.0164 0.0964,0.0152 0.19252,0.0304 0.28878,0.0456 0.0391,0.006 0.0872,0.014 0.12996,0.0208 0.16175,0.0259 0.32358,0.0522 0.48532,0.0786 0.0196,0.003 0.051,0.008 0.0752,0.0124 0.2193,0.0365 0.44002,0.0724 0.65718,0.10948 0.44801,0.0756 0.89562,0.15362 1.34288,0.23354 0.013,0.002 0.0417,0.007 0.061,0.0109 0.61474,0.11076 1.22883,0.22518 1.84196,0.34462 0.0147,0.002 0.0416,0.008 0.0608,0.0119 1.13905,0.22247 2.275,0.46117 3.40673,0.71889 0.0114,0.003 0.0413,0.01 0.0598,0.0138 0.1205,0.0277 0.24118,0.0555 0.36175,0.0832 0.0114,0.003 0.04,0.009 0.0582,0.0136 0.0674,0.016 0.14203,0.0335 0.21216,0.05 1.03264,0.24339 2.06248,0.504 3.08471,0.78616 0.13648,0.0378 0.27271,0.0759 0.40899,0.11422 0.0204,0.006 0.052,0.0147 0.0768,0.0217 0.0408,0.0116 0.0893,0.0252 0.12539,0.0356 2.05726,0.58747 4.09318,1.249 6.11207,1.95847 0.14284,0.0505 0.28565,0.10063 0.42836,0.15128 0.0333,0.0118 0.0753,0.0269 0.11202,0.04 0.61869,0.22063 1.23565,0.446301 1.85114,0.675871 0.013,0.005 0.0398,0.0149 0.058,0.0218 0.89379,0.33434 1.78393,0.67857 2.67046,1.03204 0.013,0.005 0.0395,0.0157 0.0574,0.023 0.11022,0.0442 0.22027,0.0883 0.33041,0.13249 0.013,0.005 0.0393,0.0159 0.0574,0.0233 0.23921,0.0965 0.47808,0.19377 0.71682,0.2914 0.0131,0.005 0.0391,0.0162 0.0571,0.0236 0.66844,0.27462 1.32554,0.55176 1.98886,0.83811 0.0131,0.006 0.039,0.0169 0.0568,0.0247 1.44501,0.62614 2.87788,1.2815 4.28872,1.98269 0.94156,0.46822 1.87156,0.96026 2.78489,1.48233 0.903,0.51453 1.79591,1.05412 2.676,1.61022 0.0362,0.0229 0.0801,0.0505 0.11153,0.0706 1.79963,1.1429 3.55452,2.35715 5.2642,3.63264 1.35491,1.01245 2.68225,2.06312 3.96549,3.1666 0.95895,0.82658 1.89591,1.68087 2.77563,2.59322 0.22972,0.23977 0.45567,0.4833 0.67409,0.73359 0.001,0.001 0.0266,0.0306 0.0369,0.0425 0.29845,0.34661 0.58682,0.70378 0.83582,1.08863 0.11088,0.17517 0.21648,0.3561 0.2868,0.55219 0.0178,0.0362 -0.005,0.0748 -0.0114,0.11104 -0.0704,0.23133 -0.18434,0.44638 -0.30517,0.65445 -0.25217,0.42838 -0.54673,0.82973 -0.85478,1.21859 -0.48756,0.61238 -1.01204,1.19394 -1.55345,1.75808 -0.007,0.007 -0.0295,0.0305 -0.0426,0.044 -0.41778,0.43304 -0.84652,0.85526 -1.28287,1.26924 -0.007,0.006 -0.031,0.0291 -0.0444,0.0416 -0.0489,0.0462 -0.0978,0.0922 -0.14692,0.13847 -0.007,0.005 -0.031,0.0289 -0.0444,0.0413 -0.24106,0.22543 -0.48475,0.44799 -0.73014,0.66862 -0.007,0.006 -0.0316,0.0283 -0.0457,0.0406 -0.44191,0.39583 -0.89113,0.78331 -1.34563,1.16434 -0.008,0.007 -0.0326,0.0272 -0.047,0.0392 -1.36867,1.1434 -2.79107,2.22139 -4.26081,3.22924 -1.63894,1.12917 -3.32271,2.19183 -5.04198,3.19207 -0.013,0.007 -0.0367,0.0213 -0.0537,0.031 -0.0473,0.0275 -0.10175,0.0588 -0.14464,0.0839 -0.66674,0.38499 -1.33876,0.76066 -2.01566,1.12715 -0.0188,0.0101 -0.0478,0.0257 -0.0704,0.0379 -0.45044,0.24335 -0.90317,0.48241 -1.35785,0.71758 -0.0223,0.0114 -0.0545,0.028 -0.0806,0.0414 -0.24663,0.12732 -0.49394,0.25327 -0.74177,0.37819 -0.0225,0.0111 -0.0548,0.0274 -0.081,0.0406 -0.77361,0.38879 -1.55298,0.76592 -2.33746,1.13188 -0.0168,0.008 -0.0448,0.0209 -0.066,0.0307 -2.81431,1.31026 -5.69402,2.47613 -8.61821,3.51262 -0.013,0.004 -0.04,0.0141 -0.0584,0.0205 -0.35063,0.12405 -0.70033,0.24549 -1.05305,0.36606 -0.045,0.0155 -0.0902,0.031 -0.13534,0.0464 -0.0114,0.004 -0.0401,0.0135 -0.0581,0.0196 -0.11822,0.04 -0.23657,0.0799 -0.35484,0.11996 -0.0114,0.004 -0.0403,0.0134 -0.0582,0.0195 -0.53186,0.17828 -1.06517,0.3521 -1.59953,0.52253 -0.0114,0.004 -0.0404,0.0127 -0.0587,0.0185 -0.11903,0.0376 -0.2381,0.0752 -0.35715,0.11286 -0.0114,0.004 -0.0404,0.0126 -0.0587,0.0183 -1.58341,0.49561 -3.17761,0.95603 -4.7806,1.38292 -0.0147,0.004 -0.0409,0.0109 -0.0598,0.0159 -0.10273,0.0271 -0.20531,0.0543 -0.30796,0.0815 -0.013,0.003 -0.0409,0.0107 -0.0598,0.0155 -2.81718,0.73889 -5.66053,1.37555 -8.52096,1.9195 -2.16402,0.41184 -4.33792,0.77053 -6.5186,1.08026 -0.58005,0.0828 -1.16067,0.16137 -1.74166,0.23717 -0.017,0.002 -0.0466,0.006 -0.0685,0.009 -1.30251,0.16891 -2.60722,0.32051 -3.91353,0.45631 -0.0147,0.001 -0.0421,0.004 -0.0616,0.006 -0.63189,0.0652 -1.26674,0.12686 -1.89772,0.18469 -0.65885,0.0603 -1.31809,0.11585 -1.97757,0.16843 -0.0147,0.001 -0.0422,0.003 -0.0616,0.005 -0.70538,0.0556 -1.41106,0.10638 -2.11704,0.15318 -0.51885,0.034 -1.04205,0.0664 -1.56279,0.0958 -0.0874,0.005 -0.16917,0.0101 -0.25694,0.0145 -0.73102,0.0404 -1.46231,0.0761 -2.19378,0.10766 -0.0275,0.001 -0.0659,0.003 -0.0973,0.004 -0.1448,0.006 -0.29077,0.0119 -0.43679,0.0179 -0.0313,0.001 -0.0729,0.003 -0.10811,0.004 -0.19431,0.008 -0.38864,0.0147 -0.58298,0.0219 -0.0364,0.001 -0.0823,0.003 -0.1223,0.004 -0.30386,0.0107 -0.60861,0.0206 -0.91457,0.0299 -0.0704,0.002 -0.14806,0.004 -0.22134,0.006 -0.15671,0.005 -0.31344,0.009 -0.47016,0.0131 -0.0364,7.1e-4 -0.0823,0.002 -0.12229,0.003 -0.2035,0.005 -0.40699,0.0101 -0.61049,0.0147 -0.013,3.6e-4 -0.0422,7.2e-4 -0.0618,10e-4 -0.1763,0.004 -0.3526,0.007 -0.52892,0.011 -0.0237,3.5e-4 -0.0589,10e-4 -0.0869,10e-4 -0.41496,0.008 -0.82995,0.0142 -1.24498,0.0192 -0.0499,3.6e-4 -0.10811,0.001 -0.16126,0.002 -1.33727,0.0157 -2.67466,0.0139 -4.01196,0.005 -3.3785,-0.0185 -6.757,-0.0369 -10.1355,-0.0554 -3.2473,2.23291 -6.49434,4.46625 -9.74212,6.69849 -1.41621,0.97054 -2.83937,1.93112 -4.281106,2.86278 -0.48584,0.31368 -0.97418,0.62348 -1.46593,0.92762 -0.01,0.006 -0.036,0.0223 -0.0523,0.0323 -0.66533,0.40892 -1.33556,0.81062 -2.02359,1.17978 -0.35261,0.18783 -0.7087,0.37055 -1.07779,0.52353 -0.15735,0.0629 -0.31608,0.12562 -0.48207,0.16101 -0.0337,0.006 -0.0691,-0.005 -0.10322,-0.006 z m 39.963446,-25.73805 c 1.79452,0.003 3.58733,-0.34245 5.25878,-0.99942 2.17436,-0.85221 4.14649,-2.23288 5.67988,-4.00733 1.06605,-1.23086 1.91764,-2.6514 2.49252,-4.17972 0.47536,-1.25974 0.76119,-2.59072 0.8572,-3.93468 0.11822,-1.60379 -0.0214,-3.22786 -0.42508,-4.7842 -0.41901,-1.62111 -1.1223,-3.16682 -2.06656,-4.54518 -1.13244,-1.65597 -2.61095,-3.07025 -4.31199,-4.12138 -1.38098,-0.85477 -2.90757,-1.47038 -4.49346,-1.80685 -1.5331,-0.32669 -3.11944,-0.39221 -4.67483,-0.20363 -0.58918,0.07 -1.17461,0.17624 -1.74782,0.33128 -1.27899,0.34341 -2.49905,0.89289 -3.63064,1.58224 -1.27284,0.77641 -2.43796,1.73201 -3.45216,2.82928 -0.8872,0.96168 -1.65897,2.03675 -2.24796,3.20981 -0.3106,0.62013 -0.56696,1.26821 -0.75814,1.93582 -0.36571,1.25857 -0.54398,2.56871 -0.57094,3.87863 -0.0285,1.46938 0.13322,2.9435 0.4916,4.36842 0.26233,1.04106 0.63416,2.05599 1.13203,3.00647 0.36507,0.70816 0.73505,1.41624 1.1777,2.07908 0.32072,0.47878 0.68755,0.92775 1.10758,1.32157 0.63204,0.59561 1.36477,1.06798 2.10665,1.51081 0.49993,0.29659 1.00632,0.58206 1.51549,0.8622 1.41821,0.76598 2.96799,1.28524 4.5605,1.51867 0.66188,0.0976 1.33074,0.14675 1.99965,0.14811 z"
       sodipodi:nodetypes="ccccscccccccccccsccccccccssccccccccccccccccccccccccccccccccccccccscscccccccccccccccccccccccccccccccccccccscccccssccccsscccccccccccccccccccccscccccccccccccsccccccccccccccccccccccccccccccccccccccccccccccccccccccccccccccccccccccccccccccccccccccccccccccccccccccccccccccc" />
    <path
       d="m 134.15902,134.57711 c 7.97879,0 14.48642,-6.5526 14.48642,-14.58649 0,-8.03403 -6.50763,-14.58651 -14.48642,-14.58651 -7.97898,0 -14.48659,6.55248 -14.48659,14.58651 0,8.03389 6.50761,14.58649 14.48659,14.58649"
       style="fill:#d0cbd5;fill-opacity:1;fill-rule:evenodd;stroke:none;stroke-width:0.00682714"
       id="path11675-0-5" />
    <path
       d="m 134.33717,130.68562 c 5.82257,0 10.57138,-4.74895 10.57138,-10.57155 0,-5.82263 -4.74881,-10.57155 -10.57138,-10.57155 -5.82263,0 -10.57159,4.74892 -10.57159,10.57155 0,5.8226 4.74896,10.57155 10.57159,10.57155"
       style="fill:#7f7e86;fill-opacity:1;fill-rule:evenodd;stroke:none;stroke-width:0.00680374"
       id="path11679-2-5" />
    <path
       d="m 134.33717,129.34743 c 5.08548,0 9.23337,-4.14775 9.23337,-9.23336 0,-5.08564 -4.14789,-9.23346 -9.23337,-9.23346 -5.08568,0 -9.23357,4.14782 -9.23357,9.23346 0,5.08561 4.14789,9.23336 9.23357,9.23336"
       style="fill:#2e2c30;fill-opacity:1;fill-rule:evenodd;stroke:none;stroke-width:0.00680374"
       id="path11681-6-4" />
    <path
       d="m 143.35739,118.14412 c 0.48429,2.21524 0.159,4.61247 -1.09746,6.71178 -2.61877,4.37561 -8.28902,5.79984 -12.66469,3.18092 -0.66404,-0.39747 -1.25967,-0.86543 -1.78386,-1.38821 0.25241,-0.58036 0.54441,-1.15189 0.87877,-1.71055 3.18026,-5.31379 9.1459,-7.8752 14.66724,-6.79394"
       style="fill:#353437;fill-opacity:1;fill-rule:evenodd;stroke:none;stroke-width:0.00680374"
       id="path11683-1-7" />
    <path
       d="m 142.91705,123.53161 c -1.35844,3.40765 -4.68786,5.81582 -8.57988,5.81582 -3.89213,0 -7.2215,-2.40817 -8.58005,-5.81582 2.40171,-1.76837 5.36854,-2.81411 8.58005,-2.81411 3.2113,0 6.17803,1.04574 8.57988,2.81411"
       style="fill:#585762;fill-opacity:1;fill-rule:evenodd;stroke:none;stroke-width:0.00680374"
       id="path11685-8-6" />
    <path
       d="m 142.31158,124.77024 c -1.60207,2.73781 -4.57328,4.57719 -7.97441,4.57719 -3.40127,0 -6.37244,-1.83938 -7.97454,-4.57719 2.21107,-1.69231 4.97505,-2.69864 7.97454,-2.69864 2.99942,0 5.76345,1.00633 7.97441,2.69864"
       style="fill:#5c45a5;fill-opacity:1;fill-rule:evenodd;stroke:none;stroke-width:0.00680374"
       id="path11687-7-5" />
    <path
       d="m 131.96901,122.28489 c 0.76814,-0.14002 1.55952,-0.21329 2.36816,-0.21329 2.01323,0 3.92045,0.45339 5.62562,1.26337 -0.58921,0.27555 -1.57372,0.0336 -2.21437,0.0336 -4.01902,0 -1.56922,-0.36135 -3.35361,-0.64968 -1.1478,-0.18556 -1.92553,-0.32279 -2.4258,-0.43395"
       style="fill:#fefefd;fill-opacity:1;fill-rule:evenodd;stroke:none;stroke-width:0.00680374"
       id="path11689-9-6" />
    <path
       d="m 139.17502,127.9795 c -1.40684,0.86727 -3.06377,1.36793 -4.83785,1.36793 -3.01371,0 -5.68943,-1.44403 -7.37464,-3.67757 1.28619,-0.16305 2.9241,-0.13426 3.94384,0.16189 1.60609,0.46637 4.09307,-0.86702 5.11133,-0.1222 1.09742,0.80296 -1.00147,0.89666 1.85141,1.17186 0.67345,0.065 1.15327,0.48969 1.30591,1.09809"
       style="fill:#7fc948;fill-opacity:1;fill-rule:evenodd;stroke:none;stroke-width:0.00680374"
       id="path11691-2-9" />
    <path
       d="m 134.33717,118.25095 c 2.66456,0 4.83785,-1.44594 4.83785,-3.21878 0,-1.77278 -2.17329,-3.21871 -4.83785,-3.21871 -2.66467,0 -4.83793,1.44593 -4.83793,3.21871 0,1.77284 2.17326,3.21878 4.83793,3.21878"
       style="fill:#626068;fill-opacity:1;fill-rule:evenodd;stroke:none;stroke-width:0.00680374"
       id="path11693-0-3" />
    <path
       d="m 129.64748,119.2166 c 1.11862,0 2.03091,-0.91239 2.03091,-2.03104 0,-1.11877 -0.91229,-2.03116 -2.03091,-2.03116 -1.1188,0 -2.03119,0.91239 -2.03119,2.03116 0,1.11865 0.91239,2.03104 2.03119,2.03104"
       style="fill:#e9531d;fill-opacity:1;fill-rule:evenodd;stroke:none;stroke-width:0.00680374"
       id="path11695-2-7" />
    <path
       d="m 129.64734,115.15451 c 1.12169,0 2.03105,0.90932 2.03105,2.03105 0,0.17526 -0.0222,0.34526 -0.0639,0.50747 -1.22757,-0.557 -2.04964,-1.48029 -2.1112,-2.53344 0.0475,-0.003 0.0957,-0.005 0.14407,-0.005"
       style="fill:#f46b36;fill-opacity:1;fill-rule:evenodd;stroke:none;stroke-width:0.00680374"
       id="path11697-3-4" />
    <path
       d="m 130.8301,116.19859 c 0.24102,0 0.43642,0.19533 0.43642,0.43635 0,0.24098 -0.1954,0.43639 -0.43642,0.43639 -0.24098,0 -0.43632,-0.19541 -0.43632,-0.43639 0,-0.24102 0.19534,-0.43635 0.43632,-0.43635 z m -1.4315,1.46826 c 0.3423,0 0.61997,0.27753 0.61997,0.6199 0,0.34227 -0.27767,0.61994 -0.61997,0.61994 -0.3423,0 -0.61994,-0.27767 -0.61994,-0.61994 0,-0.34237 0.27764,-0.6199 0.61994,-0.6199 z m -0.77901,-1.12568 c 0.0879,0 0.15907,0.0712 0.15907,0.15907 0,0.0878 -0.0712,0.159 -0.15907,0.159 -0.0878,0 -0.15903,-0.0712 -0.15903,-0.159 0,-0.0878 0.0713,-0.15907 0.15903,-0.15907 z m 0.85644,0 c 0.14648,0 0.26508,0.11864 0.26508,0.26508 0,0.14633 -0.1186,0.26508 -0.26508,0.26508 -0.14637,0 -0.26508,-0.11875 -0.26508,-0.26508 0,-0.14644 0.11871,-0.26508 0.26508,-0.26508 z m 1.25455,1.0522 c 0.15007,0 0.27174,0.12164 0.27174,0.27167 0,0.15004 -0.12167,0.27161 -0.27174,0.27161 -0.14997,0 -0.27153,-0.12157 -0.27153,-0.27161 0,-0.15003 0.12156,-0.27167 0.27153,-0.27167 z m -1.63781,-2.03916 c 0.17784,0 0.32209,0.14425 0.32209,0.32215 0,0.17801 -0.14425,0.32223 -0.32209,0.32223 -0.1779,0 -0.32229,-0.14422 -0.32229,-0.32223 0,-0.1779 0.14439,-0.32215 0.32229,-0.32215 z m -0.76888,1.76191 c 0.16334,0 0.2957,0.13233 0.2957,0.29563 0,0.16333 -0.13236,0.29573 -0.2957,0.29573 -0.16323,0 -0.29569,-0.1324 -0.29569,-0.29573 0,-0.1633 0.13246,-0.29563 0.29569,-0.29563 z m 1.69468,-1.68039 c 0.11702,0 0.21198,0.095 0.21198,0.21213 0,0.11709 -0.095,0.21209 -0.21198,0.21209 -0.11723,0 -0.21223,-0.095 -0.21223,-0.21209 0,-0.11716 0.095,-0.21213 0.21223,-0.21213 v 0"
       style="fill:#d64420;fill-opacity:1;fill-rule:evenodd;stroke:none;stroke-width:0.00680374"
       id="path11699-7-5" />
    <path
       d="m 130.8301,116.19859 c 0.24102,0 0.43642,0.19533 0.43642,0.43635 0,0.24098 -0.1954,0.43639 -0.43642,0.43639 -0.24098,0 -0.43632,-0.19541 -0.43632,-0.43639 0,-0.24102 0.19534,-0.43635 0.43632,-0.43635 z m -0.81153,-0.56286 c 0.11702,0 0.21198,0.095 0.21198,0.21213 0,0.11709 -0.095,0.21209 -0.21198,0.21209 -0.11723,0 -0.21223,-0.095 -0.21223,-0.21209 0,-0.11716 0.095,-0.21213 0.21223,-0.21213 v 0"
       style="fill:#f2541b;fill-opacity:1;fill-rule:evenodd;stroke:none;stroke-width:0.00680374"
       id="path11701-5-2" />
    <path
       d="m 139.99041,118.94758 0.0639,0.40918 0.40925,0.064 -0.40925,0.0638 -0.0639,0.40922 -0.0638,-0.40922 -0.40926,-0.0638 0.40926,-0.064 z m 2.03105,0 0.0121,0.0776 0.0776,0.012 -0.0776,0.0122 -0.0121,0.0777 -0.0121,-0.0777 -0.0777,-0.0122 0.0777,-0.012 z m -9.93925,0.0897 0.0183,0.11642 0.11638,0.0182 -0.11638,0.0182 -0.0183,0.11642 -0.0181,-0.11642 -0.11635,-0.0182 0.11635,-0.0182 z m -5.53071,1.07753 0.0335,0.21491 0.21495,0.0336 -0.21495,0.0336 -0.0335,0.21473 -0.0335,-0.21473 -0.21485,-0.0336 0.21485,-0.0336 z m -0.11373,-2.63543 0.0181,0.11635 0.11645,0.0182 -0.11645,0.0182 -0.0181,0.11641 -0.0182,-0.11641 -0.11642,-0.0182 0.11642,-0.0182 z m 7.8347,-2.75703 0.0121,0.0776 0.0777,0.0121 -0.0777,0.0121 -0.0121,0.0776 -0.0122,-0.0776 -0.0775,-0.0121 0.0775,-0.0121 z m 1.88415,3.85004 0.022,0.14111 0.14118,0.022 -0.14118,0.0221 -0.022,0.141 -0.022,-0.141 -0.14125,-0.0221 0.14125,-0.022 z m 3.52394,-1.82714 0.0219,0.14111 0.14118,0.022 -0.14118,0.0221 -0.0219,0.14104 -0.0221,-0.14104 -0.14111,-0.0221 0.14111,-0.022 z m -9.94746,3.61802 0.0181,0.11641 0.11642,0.018 -0.11642,0.0183 -0.0181,0.11635 -0.0182,-0.11635 -0.11642,-0.0183 0.11642,-0.018 z m -2.79866,0.99871 0.0183,0.11642 0.11641,0.0182 -0.11641,0.0182 -0.0183,0.11642 -0.0181,-0.11642 -0.11638,-0.0182 0.11638,-0.0182 z m 14.28759,-0.5709 0.0298,0.1905 0.19054,0.0297 -0.19054,0.0298 -0.0298,0.19043 -0.0297,-0.19043 -0.19057,-0.0298 0.19057,-0.0297 z m -9.86171,-7.71645 0.022,0.14108 0.14111,0.022 -0.14111,0.022 -0.022,0.14119 -0.022,-0.14119 -0.14112,-0.022 0.14112,-0.022 z m 4.75534,0.75861 0.0254,0.16218 0.16235,0.0255 -0.16235,0.0253 -0.0254,0.16221 -0.0252,-0.16221 -0.16235,-0.0253 0.16235,-0.0255 z m 1.16657,1.73733 0.0341,0.21883 0.21879,0.0341 -0.21879,0.0341 -0.0341,0.21869 -0.0342,-0.21869 -0.21865,-0.0341 0.21865,-0.0341 z m -4.97572,-0.66873 0.0121,0.0776 0.0775,0.0121 -0.0775,0.0121 -0.0121,0.0776 -0.0121,-0.0776 -0.0777,-0.0121 0.0777,-0.0121 z m 8.97267,0.97879 0.022,0.14104 0.14119,0.022 -0.14119,0.022 -0.022,0.14118 -0.022,-0.14118 -0.14118,-0.022 0.14118,-0.022 0.022,-0.14104 v 0"
       style="fill:#ffffff;fill-opacity:1;fill-rule:evenodd;stroke:none;stroke-width:0.00680374"
       id="path11703-9-5" />
    <path
       d="m 134.33717,108.62918 c 0.55245,0 1.00323,-0.45078 1.00323,-1.00337 0,-0.55252 -0.45078,-1.00327 -1.00323,-1.00327 -0.55259,0 -1.00341,0.45075 -1.00341,1.00327 0,0.55259 0.45082,1.00337 1.00341,1.00337"
       style="fill:#7f7e86;fill-opacity:1;fill-rule:evenodd;stroke:none;stroke-width:0.00680374"
       id="path11705-2-4" />
    <path
       d="m 134.33717,107.685 c 0.32568,0 0.59132,-0.22069 0.59132,-0.49142 0,-0.27072 -0.26564,-0.49152 -0.59132,-0.49152 -0.32576,0 -0.5915,0.2208 -0.5915,0.49152 0,0.27073 0.26574,0.49142 0.5915,0.49142"
       style="fill:#9c99a2;fill-opacity:1;fill-rule:evenodd;stroke:none;stroke-width:0.00680374"
       id="path11707-2-7" />
    <path
       d="m 134.33717,133.60563 c 0.55245,0 1.00323,-0.45074 1.00323,-1.0034 0,-0.55266 -0.45078,-1.0033 -1.00323,-1.0033 -0.55259,0 -1.00341,0.45064 -1.00341,1.0033 0,0.55266 0.45082,1.0034 1.00341,1.0034"
       style="fill:#7f7e86;fill-opacity:1;fill-rule:evenodd;stroke:none;stroke-width:0.00680374"
       id="path11709-8-4" />
    <path
       d="m 134.33717,132.66146 c 0.32568,0 0.59132,-0.22084 0.59132,-0.49149 0,-0.27079 -0.26564,-0.49149 -0.59132,-0.49149 -0.32576,0 -0.5915,0.2207 -0.5915,0.49149 0,0.27065 0.26574,0.49149 0.5915,0.49149"
       style="fill:#9c99a2;fill-opacity:1;fill-rule:evenodd;stroke:none;stroke-width:0.00680374"
       id="path11711-9-4" />
    <path
       d="m 121.68814,121.1173 c 0.55263,0 1.0033,-0.45064 1.0033,-1.00323 0,-0.55259 -0.45067,-1.00326 -1.0033,-1.00326 -0.55255,0 -1.00323,0.45067 -1.00323,1.00326 0,0.55259 0.45068,1.00323 1.00323,1.00323"
       style="fill:#7f7e86;fill-opacity:1;fill-rule:evenodd;stroke:none;stroke-width:0.00680374"
       id="path11713-7-3" />
    <path
       d="m 121.68814,120.17334 c 0.32587,0 0.59151,-0.22091 0.59151,-0.49156 0,-0.27073 -0.26564,-0.49153 -0.59151,-0.49153 -0.32561,0 -0.59143,0.2208 -0.59143,0.49153 0,0.27065 0.26582,0.49156 0.59143,0.49156"
       style="fill:#9c99a2;fill-opacity:1;fill-rule:evenodd;stroke:none;stroke-width:0.00680374"
       id="path11715-3-0" />
    <path
       d="m 146.98603,121.1173 c 0.55245,0 1.00326,-0.45064 1.00326,-1.00323 0,-0.55259 -0.45081,-1.00326 -1.00326,-1.00326 -0.55274,0 -1.00323,0.45067 -1.00323,1.00326 0,0.55259 0.45049,1.00323 1.00323,1.00323"
       style="fill:#7f7e86;fill-opacity:1;fill-rule:evenodd;stroke:none;stroke-width:0.00680374"
       id="path11717-6-7" />
    <path
       d="m 146.98603,120.17334 c 0.32561,0 0.59136,-0.22091 0.59136,-0.49156 0,-0.27073 -0.26575,-0.49153 -0.59136,-0.49153 -0.32586,0 -0.5914,0.2208 -0.5914,0.49153 0,0.27065 0.26554,0.49156 0.5914,0.49156"
       style="fill:#9c99a2;fill-opacity:1;fill-rule:evenodd;stroke:none;stroke-width:0.00680374"
       id="path11719-1-8" />
    <path
       d="m 125.29988,112.5037 c 0.55252,0 1.0033,-0.45071 1.0033,-1.0033 0,-0.55252 -0.45078,-1.00326 -1.0033,-1.00326 -0.55259,0 -1.00326,0.45074 -1.00326,1.00326 0,0.55259 0.45067,1.0033 1.00326,1.0033"
       style="fill:#7f7e86;fill-opacity:1;fill-rule:evenodd;stroke:none;stroke-width:0.00680374"
       id="path11721-2-6" />
    <path
       d="m 125.29988,111.5596 c 0.32565,0 0.5914,-0.22077 0.5914,-0.49149 0,-0.27072 -0.26575,-0.49153 -0.5914,-0.49153 -0.32575,0 -0.59143,0.22081 -0.59143,0.49153 0,0.27072 0.26568,0.49149 0.59143,0.49149"
       style="fill:#9c99a2;fill-opacity:1;fill-rule:evenodd;stroke:none;stroke-width:0.00680374"
       id="path11723-9-8" />
    <path
       d="m 125.29988,129.77165 c 0.55252,0 1.0033,-0.45075 1.0033,-1.00327 0,-0.55263 -0.45078,-1.00323 -1.0033,-1.00323 -0.55259,0 -1.00326,0.4506 -1.00326,1.00323 0,0.55252 0.45067,1.00327 1.00326,1.00327"
       style="fill:#7f7e86;fill-opacity:1;fill-rule:evenodd;stroke:none;stroke-width:0.00680374"
       id="path11725-3-8" />
    <path
       d="m 125.29988,128.82758 c 0.32565,0 0.5914,-0.22084 0.5914,-0.49153 0,-0.27065 -0.26575,-0.49142 -0.5914,-0.49142 -0.32575,0 -0.59143,0.22077 -0.59143,0.49142 0,0.27069 0.26568,0.49153 0.59143,0.49153"
       style="fill:#9c99a2;fill-opacity:1;fill-rule:evenodd;stroke:none;stroke-width:0.00680374"
       id="path11727-1-4" />
    <path
       d="m 143.76255,112.5037 c 0.5526,0 1.00327,-0.45071 1.00327,-1.0033 0,-0.55252 -0.45067,-1.00326 -1.00327,-1.00326 -0.55248,0 -1.00322,0.45074 -1.00322,1.00326 0,0.55259 0.45074,1.0033 1.00322,1.0033"
       style="fill:#7f7e86;fill-opacity:1;fill-rule:evenodd;stroke:none;stroke-width:0.00680374"
       id="path11729-9-3" />
    <path
       d="m 143.76255,111.5596 c 0.32576,0 0.59151,-0.22077 0.59151,-0.49149 0,-0.27072 -0.26575,-0.49153 -0.59151,-0.49153 -0.32571,0 -0.59139,0.22081 -0.59139,0.49153 0,0.27072 0.26568,0.49149 0.59139,0.49149"
       style="fill:#9c99a2;fill-opacity:1;fill-rule:evenodd;stroke:none;stroke-width:0.00680374"
       id="path11731-4-1" />
    <path
       d="m 143.76255,129.77165 c 0.5526,0 1.00327,-0.45075 1.00327,-1.00327 0,-0.55263 -0.45067,-1.00323 -1.00327,-1.00323 -0.55248,0 -1.00322,0.4506 -1.00322,1.00323 0,0.55252 0.45074,1.00327 1.00322,1.00327"
       style="fill:#7f7e86;fill-opacity:1;fill-rule:evenodd;stroke:none;stroke-width:0.00680374"
       id="path11733-7-4" />
    <path
       d="m 143.76255,128.82758 c 0.32576,0 0.59151,-0.22084 0.59151,-0.49153 0,-0.27065 -0.26575,-0.49142 -0.59151,-0.49142 -0.32571,0 -0.59139,0.22077 -0.59139,0.49142 0,0.27069 0.26568,0.49153 0.59139,0.49153"
       style="fill:#9c99a2;fill-opacity:1;fill-rule:evenodd;stroke:none;stroke-width:0.00680374"
       id="path11735-8-9" />
    <circle
       style="fill:#333333;stroke:none;stroke-width:0.653747;stroke-miterlimit:4;stroke-dasharray:none;stroke-opacity:1"
       id="path12446-2"
       cx="134.44582"
       cy="120.11894"
       r="9.3601875" />
    <path
       style="fill:#fe9d64;fill-opacity:1;stroke:#fe9d64;stroke-width:0.26987px;stroke-linecap:butt;stroke-linejoin:miter;stroke-opacity:1"
       d="m 66.528102,84.673676 23.784141,-2.162346 9.846087,5.720695 c 0.20215,0.181438 9.49894,5.337638 10.95976,7.076674 1.89723,2.2586 4.30726,5.742361 4.30726,5.742361 L 77.251035,104.83012 66.528102,84.673676"
       id="path12722-0"
       sodipodi:nodetypes="cccsccc" />
    <path
       style="fill:#fe9d64;fill-opacity:1;stroke:#fe9d64;stroke-width:0.267052px;stroke-linecap:butt;stroke-linejoin:miter;stroke-opacity:1"
       d="m 71.529228,159.28744 22.340239,0.91792 c 0,0 6.385173,-3.74123 9.428603,-5.84832 3.41369,-2.36341 9.88938,-6.88825 11.47169,-8.48142 1.92647,-1.93969 3.62921,-4.0788 3.62921,-4.0788 l -37.608666,-3.75622 -9.261076,21.24684"
       id="path12722-6-6"
       sodipodi:nodetypes="ccssccc" />
    <path
       d="m 65.855293,126.009 h 31.779161 c 4.156256,0 10.276806,-1.41288 13.601906,-3.14008 l 6.04493,-3.13831 H 70.389432 l -6.04493,3.13831 c -3.325099,1.7272 -2.64521,3.14008 1.510791,3.14008"
       style="fill:#fe9d64;fill-opacity:1;fill-rule:evenodd;stroke:none;stroke-width:0.0297719"
       id="path10871-8" />
  </g>
</svg>
