<?xml version="1.0" encoding="UTF-8" standalone="no"?>
<svg
   xmlns:dc="http://purl.org/dc/elements/1.1/"
   xmlns:cc="http://creativecommons.org/ns#"
   xmlns:rdf="http://www.w3.org/1999/02/22-rdf-syntax-ns#"
   xmlns:svg="http://www.w3.org/2000/svg"
   xmlns="http://www.w3.org/2000/svg"
   xmlns:sodipodi="http://sodipodi.sourceforge.net/DTD/sodipodi-0.dtd"
   xmlns:inkscape="http://www.inkscape.org/namespaces/inkscape"
   version="1.1"
   id="svg10486"
   width="444.75287"
   height="445.85068"
   viewBox="0 0 444.75287 445.85068"
   sodipodi:docname="rocketpoolicon.svg"
   inkscape:version="1.0.2 (e86c870879, 2021-01-15)">
  <metadata
     id="metadata10492">
    <rdf:RDF>
      <cc:Work
         rdf:about="">
        <dc:format>image/svg+xml</dc:format>
        <dc:type
           rdf:resource="http://purl.org/dc/dcmitype/StillImage" />
        <dc:title></dc:title>
      </cc:Work>
    </rdf:RDF>
  </metadata>
  <defs
     id="defs10490" />
  <sodipodi:namedview
     pagecolor="#ffffff"
     bordercolor="#666666"
     borderopacity="1"
     objecttolerance="10"
     gridtolerance="10"
     guidetolerance="10"
     inkscape:pageopacity="0"
     inkscape:pageshadow="2"
     inkscape:window-width="1920"
     inkscape:window-height="1043"
     id="namedview10488"
     showgrid="false"
     fit-margin-top="0"
     fit-margin-left="0"
     fit-margin-right="0"
     fit-margin-bottom="0"
     inkscape:pagecheckerboard="true"
     inkscape:zoom="0.44029552"
     inkscape:cx="-8.7834479"
     inkscape:cy="209.22804"
     inkscape:window-x="1080"
     inkscape:window-y="509"
     inkscape:window-maximized="1"
     inkscape:current-layer="g10494" />
  <g
     inkscape:groupmode="layer"
     inkscape:label="Image"
     id="g10494"
     transform="translate(-212.15671,-193.61992)">
    <path
       style="fill:#ffffff;stroke-width:2.2712"
       d="m 415.01242,638.16657 c -1.98657,-2.57861 -22.98751,-58.72174 -26.66575,-71.28721 -1.28773,-4.39909 -2.66041,-4.68974 -17.81754,-3.7726 -9.03227,0.54654 -20.75135,-0.007 -26.04239,-1.23079 l -9.62008,-2.22448 -14.67894,16.21749 -14.67894,16.21747 -13.71176,-13.5246 c -15.35291,-15.14332 -15.50061,-11.9857 1.577,-33.70113 l 9.67446,-12.30176 -3.45866,-8.27774 c -1.90226,-4.55276 -4.72271,-14.54323 -6.26766,-22.20107 l -2.809,-13.9233 -29.52565,-8.57443 c -16.2391,-4.71592 -33.8693,-9.7328 -39.1782,-11.14858 -5.3089,-1.4158 -9.6526,-3.60144 -9.6526,-4.85701 0,-1.25556 12.6612,-17.34819 28.1359,-35.76137 l 28.136,-33.47854 30.34748,-8.47901 c 16.69113,-4.66345 33.98994,-9.4788 38.4418,-10.70076 6.26665,-1.7201 11.65132,-6.64842 23.84762,-21.82651 31.51255,-39.21687 90.77446,-89.97736 134.30511,-115.03836 22.33127,-12.85634 53.44642,-26.77769 74.12555,-33.16483 30.99053,-9.57199 75.08964,-14.58893 83.1919,-9.46433 5.00939,3.16838 5.67501,29.47352 1.3818,54.60745 -12.67701,74.21547 -57.94292,152.10006 -131.162,225.67745 l -26.81606,26.94729 -7.04083,38.91757 c -4.8462,26.78687 -8.19096,39.81587 -10.73066,41.79949 -2.02941,1.58507 -13.4474,12.3165 -25.37335,23.84762 -34.40413,33.26514 -35.36452,34.04255 -37.93455,30.70658 z m 73.40541,-214.11431 c 31.78027,-9.43773 44.17613,-49.22812 23.24619,-74.61975 -20.13971,-24.43296 -57.5189,-23.10182 -75.68928,2.69544 -9.13929,12.97545 -10.78347,33.78764 -3.75727,47.56012 5.69428,11.16171 17.35977,21.05385 29.15471,24.7227 11.53191,3.58703 13.86364,3.55611 27.04565,-0.35851 z"
       id="path10498" />
  </g>
</svg>
